HIERARCHY
ROOT Hips
{
	OFFSET 0.000000 0.000000 0.000000
	CHANNELS 6 Xposition Yposition Zposition Xrotation Yrotation Zrotation
	JOINT LeftUpLeg_virtual
	{
		OFFSET 0.000000 0.000000 0.000000
		CHANNELS 3 Xrotation Yrotation Zrotation
		JOINT LeftUpLeg
		{
			OFFSET 13.026900 -6.336304 -1.092800
			CHANNELS 3 Xrotation Yrotation Zrotation
			JOINT LeftLeg
			{
				OFFSET 0.524474 -46.096886 9.782700
				CHANNELS 3 Xrotation Yrotation Zrotation
				JOINT LeftFoot
				{
					OFFSET -0.524474 -53.427422 -12.948200
					CHANNELS 3 Xrotation Yrotation Zrotation
					JOINT LeftToeBase
					{
						OFFSET 0.192200 -14.009700 16.364100
						CHANNELS 3 Xrotation Yrotation Zrotation
						JOINT LeftToe_End
						{
							OFFSET -1.784700 -0.561700 9.474800
							CHANNELS 3 Xrotation Yrotation Zrotation
							End Site
							{
								OFFSET 0 0 0
							}
						}
					}
				}
			}
		}
	}
	JOINT RightUpLeg_virtual
	{
		OFFSET 0.000000 0.000000 0.000000
		CHANNELS 3 Xrotation Yrotation Zrotation
		JOINT RightUpLeg
		{
			OFFSET -12.883000 -6.336304 -1.092800
			CHANNELS 3 Xrotation Yrotation Zrotation
			JOINT RightLeg
			{
				OFFSET -0.524587 -46.096825 9.782800
				CHANNELS 3 Xrotation Yrotation Zrotation
				JOINT RightFoot
				{
					OFFSET 0.524587 -53.427383 -12.948300
					CHANNELS 3 Xrotation Yrotation Zrotation
					JOINT RightToeBase
					{
						OFFSET -0.192200 -14.009700 16.364100
						CHANNELS 3 Xrotation Yrotation Zrotation
						JOINT RightToe_End
						{
							OFFSET 1.784700 -0.561700 9.474800
							CHANNELS 3 Xrotation Yrotation Zrotation
							End Site
							{
								OFFSET 0 0 0
							}
						}
					}
				}
			}
		}
	}
	JOINT Spine_virtual
	{
		OFFSET 0.000000 0.000000 0.000000
		CHANNELS 3 Xrotation Yrotation Zrotation
		JOINT Spine
		{
			OFFSET 0.072000 7.257294 -0.789700
			CHANNELS 3 Xrotation Yrotation Zrotation
			JOINT Spine1
			{
				OFFSET 0.000000 12.508769 -0.658067
				CHANNELS 3 Xrotation Yrotation Zrotation
				JOINT Spine1_split
				{
					OFFSET 0.000000 12.508769 -0.658067
					CHANNELS 3 Xrotation Yrotation Zrotation
					JOINT Spine2
					{
						OFFSET 0.000000 12.508769 -0.658067
						CHANNELS 3 Xrotation Yrotation Zrotation
						JOINT Neck_virtual
						{
							OFFSET 0.000000 0.000000 0.000000
							CHANNELS 3 Xrotation Yrotation Zrotation
							JOINT Neck
							{
								OFFSET 0.000000 14.033295 7.520400
								CHANNELS 3 Xrotation Yrotation Zrotation
								JOINT Head
								{
									OFFSET 0.000000 8.198502 5.703100
									CHANNELS 3 Xrotation Yrotation Zrotation
									JOINT HeadTop_End
									{
										OFFSET 0.000000 17.760803 13.332701
										CHANNELS 3 Xrotation Yrotation Zrotation
										End Site
										{
											OFFSET 0 0 0
										}
									}
								}
							}
						}
						JOINT LeftShoulder_virtual
						{
							OFFSET 0.000000 0.000000 0.000000
							CHANNELS 3 Xrotation Yrotation Zrotation
							JOINT LeftShoulder
							{
								OFFSET 6.292450 5.785301 -0.669000
								CHANNELS 3 Xrotation Yrotation Zrotation
								JOINT LeftShoulder_split
								{
									OFFSET 6.292450 5.785301 -0.669000
									CHANNELS 3 Xrotation Yrotation Zrotation
									JOINT LeftArm
									{
										OFFSET 13.907140 -6.093903 1.965100
										CHANNELS 3 Xrotation Yrotation Zrotation
										JOINT LeftForeArm
										{
											OFFSET 34.140198 0.000000 0.000000
											CHANNELS 3 Xrotation Yrotation Zrotation
											JOINT LeftHand
											{
												OFFSET 40.960209 0.000000 0.000000
												CHANNELS 3 Xrotation Yrotation Zrotation
												End Site
												{
													OFFSET 0 0 0
												}
											}
										}
									}
								}
							}
						}
						JOINT RightShoulder_virtual
						{
							OFFSET 0.000000 0.000000 0.000000
							CHANNELS 3 Xrotation Yrotation Zrotation
							JOINT RightShoulder
							{
								OFFSET -6.292450 5.785301 -0.669000
								CHANNELS 3 Xrotation Yrotation Zrotation
								JOINT RightShoulder_split
								{
									OFFSET -6.292450 5.785301 -0.669000
									CHANNELS 3 Xrotation Yrotation Zrotation
									JOINT RightArm
									{
										OFFSET -13.907140 -6.093903 1.965100
										CHANNELS 3 Xrotation Yrotation Zrotation
										JOINT RightForeArm
										{
											OFFSET -34.140198 0.000000 0.000000
											CHANNELS 3 Xrotation Yrotation Zrotation
											JOINT RightHand
											{
												OFFSET -40.960209 0.000000 0.000000
												CHANNELS 3 Xrotation Yrotation Zrotation
												End Site
												{
													OFFSET 0 0 0
												}
											}
										}
									}
								}
							}
						}
					}
				}
			}
		}
	}
}
MOTION
Frames: 11
Frame Time: 0.03333333
-1.111156 101.148857 0.434559 0.000000 0.000000 0.000000 3.032228 -58.328470 6.707845 -36.056722 9.366558 25.451281 41.733088 -7.555478 -9.726227 -7.259303 -2.461504 -9.583403 -0.327605 1.238450 0.837249 0.000000 0.000000 0.000000 3.032228 -58.328470 6.707845 -33.212526 -7.748648 -26.039895 46.179411 2.592494 -7.371243 -16.829888 3.006012 21.138776 -0.322816 -0.997457 -0.837141 0.000000 0.000000 0.000000 3.032228 -58.328470 6.707845 11.191929 0.157681 -2.923538 8.434587 0.027680 -5.592313 0.000000 0.000000 0.000000 0.000000 0.000000 0.000000 8.457034 0.027899 -5.591875 -21.555840 25.063360 12.062743 -0.293897 25.465792 -3.209030 0.000000 0.000000 0.000000 8.457034 0.027899 -5.591875 -6.221628 -11.503788 -4.023771 0.000000 0.000000 0.000000 -23.062212 9.568432 -36.639652 0.046074 -43.168916 -0.011183 0.000000 0.000000 0.000000 8.457034 0.027899 -5.591875 -5.488215 10.658240 2.466474 0.000000 0.000000 0.000000 -41.473899 -26.755560 30.079047 -155.044324 68.137134 156.691274 0.000000 0.000000 0.000000 
-1.420920 101.234085 0.904232 0.000000 0.000000 0.000000 1.941021 -58.287550 5.029640 -35.274679 8.509056 25.894099 42.148247 -7.330312 -9.772363 -7.848951 -2.396413 -9.705117 -0.327605 1.238451 0.837249 0.000000 0.000000 0.000000 1.941021 -58.287550 5.029640 -32.050775 -8.707003 -25.686755 45.652749 2.976029 -7.291309 -16.967378 2.975523 21.112828 -0.322816 -0.997456 -0.837141 0.000000 0.000000 0.000000 1.941021 -58.287550 5.029640 11.072003 0.109741 -2.992066 8.093941 -0.081196 -5.786250 0.000000 0.000000 0.000000 0.000000 0.000000 0.000000 8.133080 -0.021272 -5.670398 -18.473597 24.513728 14.037471 -1.509212 25.960383 -3.156109 0.000000 0.000000 0.000000 8.133080 -0.021272 -5.670398 -6.237335 -11.503382 -4.274836 0.000000 0.000000 0.000000 -23.016754 9.112610 -36.903652 0.376381 -42.965807 0.192106 0.000000 0.000000 0.000000 8.133080 -0.021272 -5.670398 -5.454989 9.092290 2.875201 0.000000 0.000000 0.000000 -39.552037 -24.929123 32.615270 -147.720804 70.244780 149.319984 0.000000 0.000000 0.000000 
-2.089341 101.327934 1.363899 0.000000 0.000000 0.000000 0.761650 -58.225136 3.263484 -34.433302 8.199371 26.708871 42.387362 -7.720382 -9.854271 -8.498640 -2.347287 -9.720268 -0.327605 1.238444 0.837249 0.000000 0.000000 0.000000 0.761650 -58.225136 3.263484 -30.560257 -9.626953 -25.151053 45.167997 3.175096 -7.228317 -17.364286 2.902759 21.105329 -0.322816 -0.997454 -0.837141 0.000000 0.000000 0.000000 0.761650 -58.225136 3.263484 10.777433 0.057629 -3.075100 7.238971 -0.187262 -5.957858 0.000000 0.000000 0.000000 0.000000 0.000000 0.000000 7.302201 -0.146038 -5.752772 -15.262425 23.781308 15.793665 -2.545714 26.126741 -2.432412 0.000000 0.000000 0.000000 7.302201 -0.146038 -5.752772 -6.328937 -11.385476 -4.905916 0.000000 0.000000 0.000000 -22.894422 7.888641 -37.610283 0.611323 -42.459919 0.290316 0.000000 0.000000 0.000000 7.302201 -0.146038 -5.752772 -5.464589 7.537303 3.772437 0.000000 0.000000 0.000000 -37.732526 -22.484996 35.680625 -145.612666 74.179003 146.687328 0.000000 0.000000 0.000000 
-2.407554 101.423531 1.794998 0.000000 0.000000 0.000000 -0.228486 -58.151698 1.709091 -33.965831 8.154793 27.476832 42.606689 -8.265718 -9.952217 -8.932196 -2.345425 -9.488724 -0.327605 1.238445 0.837249 0.000000 0.000000 0.000000 -0.228486 -58.151698 1.709091 -29.293756 -10.304882 -24.649318 44.586758 3.268008 -7.161015 -17.475640 2.863198 21.193303 -0.322816 -0.997457 -0.837141 0.000000 0.000000 0.000000 -0.228486 -58.151698 1.709091 10.395072 0.013483 -3.130271 6.101850 -0.226076 -6.006309 0.000000 0.000000 0.000000 0.000000 0.000000 0.000000 6.176575 -0.295612 -5.836881 -13.169303 22.947257 16.636292 -0.497741 24.537648 -0.243716 0.000000 0.000000 0.000000 6.176575 -0.295612 -5.836881 -6.535416 -10.807641 -5.732530 0.000000 0.000000 0.000000 -22.738461 6.153025 -38.622869 0.152918 -41.815774 -0.103715 0.000000 0.000000 0.000000 6.176575 -0.295612 -5.836881 -5.443922 5.937226 4.860416 0.000000 0.000000 0.000000 -36.781347 -19.266270 38.375100 -132.687708 77.994572 133.370590 0.000000 0.000000 0.000000 
-2.270954 101.727959 2.087963 0.000000 0.000000 0.000000 -0.756749 -58.090062 0.688421 -33.820764 8.416394 27.945193 42.394591 -8.714452 -9.970638 -8.885268 -2.404632 -9.094152 -0.327605 1.238447 0.837249 0.000000 0.000000 0.000000 -0.756749 -58.090062 0.688421 -28.355587 -10.741973 -24.192060 43.599990 3.218473 -7.060587 -17.065120 2.917251 21.312617 -0.322816 -0.997456 -0.837141 0.000000 0.000000 0.000000 -0.756749 -58.090062 0.688421 9.927787 0.065571 -3.115631 4.915977 -0.136443 -6.000505 0.000000 0.000000 0.000000 0.000000 0.000000 0.000000 4.992231 -0.192192 -5.908418 -15.170630 21.463777 16.313156 6.964692 20.228585 4.183034 0.000000 0.000000 0.000000 4.992231 -0.192192 -5.908418 -6.771020 -9.538066 -6.680926 0.000000 0.000000 0.000000 -22.567005 3.702458 -39.875023 -1.328048 -41.179972 -1.177714 0.000000 0.000000 0.000000 4.992231 -0.192192 -5.908418 -5.358073 4.518375 5.664417 0.000000 0.000000 0.000000 -36.421854 -16.491985 40.393705 -107.868358 80.722796 108.140801 0.000000 0.000000 0.000000 
-2.115844 102.557060 2.174595 0.000000 0.000000 0.000000 0.020582 -58.116632 1.201293 -33.798122 9.415431 27.839665 40.944197 -8.964739 -9.758034 -8.200067 -2.509560 -8.795055 -0.327605 1.238449 0.837249 0.000000 0.000000 0.000000 0.020582 -58.116632 1.201293 -27.846847 -10.975416 -23.837410 41.839174 3.007548 -6.889897 -16.195844 3.086942 21.313083 -0.322816 -0.997454 -0.837141 0.000000 0.000000 0.000000 0.020582 -58.116632 1.201293 9.380808 0.275965 -3.055351 3.918251 0.179815 -6.013970 0.000000 0.000000 0.000000 0.000000 0.000000 0.000000 3.962016 0.207644 -5.971800 -18.323123 20.051292 15.190819 14.989306 15.809615 7.710250 0.000000 0.000000 0.000000 3.962016 0.207644 -5.971800 -6.956648 -8.356678 -7.357546 0.000000 0.000000 0.000000 -22.452953 1.056114 -41.326148 -1.914930 -40.730249 -1.654362 0.000000 0.000000 0.000000 3.962016 0.207644 -5.971800 -5.258171 3.254539 6.519911 0.000000 0.000000 0.000000 -36.060762 -15.244542 41.265476 -89.956481 80.908126 90.006648 0.000000 0.000000 0.000000 
-1.902555 103.823250 2.197227 0.000000 0.000000 0.000000 1.359635 -58.797526 2.304178 -33.474593 11.102850 27.635558 38.637380 -8.817967 -9.344996 -7.222158 -2.618749 -8.681538 -0.327605 1.238449 0.837249 0.000000 0.000000 0.000000 1.359635 -58.797526 2.304178 -27.536775 -11.183924 -23.369771 39.283584 3.284756 -6.595243 -14.773626 3.430708 20.963070 -0.322816 -0.997457 -0.837141 0.000000 0.000000 0.000000 1.359635 -58.797526 2.304178 8.838394 0.472270 -2.875441 3.362157 0.462221 -6.017346 0.000000 0.000000 0.000000 0.000000 0.000000 0.000000 3.275490 0.581074 -5.998076 -21.246912 19.321085 12.657147 17.844848 13.374505 7.838807 0.000000 0.000000 0.000000 3.275490 0.581074 -5.998076 -7.053101 -7.444192 -7.457738 0.000000 0.000000 0.000000 -22.413802 -0.011830 -42.202369 -1.723741 -41.283863 -1.669475 0.000000 0.000000 0.000000 3.275490 0.581074 -5.998076 -5.183514 2.455856 7.265820 0.000000 0.000000 0.000000 -36.167518 -14.080286 41.515929 -81.230866 80.405684 81.159627 0.000000 0.000000 0.000000 
-1.573569 105.048065 2.060932 0.000000 0.000000 0.000000 1.741419 -59.705498 2.253825 -32.836507 12.673501 27.897885 36.431925 -8.697540 -8.938622 -6.209498 -2.719202 -8.649952 -0.327605 1.238448 0.837249 0.000000 0.000000 0.000000 1.741419 -59.705498 2.253825 -26.813255 -11.643979 -22.530759 36.692661 3.846990 -6.264647 -13.224066 3.824940 20.394745 -0.322816 -0.997454 -0.837141 0.000000 0.000000 0.000000 1.741419 -59.705498 2.253825 8.393062 0.486780 -2.628881 3.158812 0.511690 -5.902430 0.000000 0.000000 0.000000 0.000000 0.000000 0.000000 3.183943 0.587371 -5.880372 -24.303746 19.669244 10.062274 13.519378 13.830516 5.724563 0.000000 0.000000 0.000000 3.183943 0.587371 -5.880372 -7.142408 -7.193933 -7.126630 0.000000 0.000000 0.000000 -22.424016 0.530531 -42.162471 -0.504377 -42.298754 -0.924315 0.000000 0.000000 0.000000 3.183943 0.587371 -5.880372 -5.196365 2.490136 7.469622 0.000000 0.000000 0.000000 -36.601365 -12.488583 41.929319 -71.944835 79.013964 71.681585 0.000000 0.000000 0.000000 
-1.215265 105.616798 1.717884 0.000000 0.000000 0.000000 1.854488 -60.149788 1.827532 -32.888184 13.326015 28.488874 35.369937 -8.823893 -8.757718 -5.472134 -2.787866 -8.616734 -0.327605 1.238444 0.837249 0.000000 0.000000 0.000000 1.854488 -60.149788 1.827532 -26.468636 -11.919788 -21.642346 35.422915 3.975332 -6.107565 -12.304016 4.052843 20.025117 -0.322816 -0.997454 -0.837141 0.000000 0.000000 0.000000 1.854488 -60.149788 1.827532 8.251079 0.341637 -2.405065 3.439175 0.423196 -5.620669 0.000000 0.000000 0.000000 0.000000 0.000000 0.000000 3.528456 0.292323 -5.592827 -27.478987 21.489204 8.182521 5.214424 16.590427 2.926284 0.000000 0.000000 0.000000 3.528456 0.292323 -5.592827 -6.982167 -7.340030 -5.740869 0.000000 0.000000 0.000000 -22.491051 1.394442 -41.785581 0.943904 -43.473645 0.254352 0.000000 0.000000 0.000000 3.528456 0.292323 -5.592827 -5.431428 4.464999 6.709790 0.000000 0.000000 0.000000 -36.751738 -14.109410 40.753953 -59.738481 85.393252 59.707847 0.000000 0.000000 0.000000 
-0.852078 105.291550 1.182838 0.000000 0.000000 0.000000 1.368352 -60.088459 0.937283 -33.605934 12.943059 29.338313 35.898764 -9.224443 -8.898150 -5.218788 -2.808418 -8.543418 -0.327605 1.238443 0.837249 0.000000 0.000000 0.000000 1.368352 -60.088459 0.937283 -26.746867 -11.858054 -21.004922 36.146468 3.700341 -6.212744 -12.333594 4.064330 19.886685 -0.322816 -0.997455 -0.837141 0.000000 0.000000 0.000000 1.368352 -60.088459 0.937283 8.400142 0.246819 -2.276146 4.088840 0.249323 -5.311302 0.000000 0.000000 0.000000 0.000000 0.000000 0.000000 4.180716 0.090521 -5.284376 -29.233514 23.642809 7.499860 -3.212248 20.063022 0.996262 0.000000 0.000000 0.000000 4.180716 0.090521 -5.284376 -6.629062 -8.334203 -3.708211 0.000000 0.000000 0.000000 -22.799067 2.516938 -41.294214 2.397861 -44.681602 1.699808 0.000000 0.000000 0.000000 4.180716 0.090521 -5.284376 -5.583404 7.019063 5.124994 0.000000 0.000000 0.000000 -36.906835 -17.789195 38.516721 -94.631103 79.806437 94.756259 0.000000 0.000000 0.000000 
-0.475882 104.320854 0.623318 0.000000 0.000000 0.000000 -0.288355 -59.881757 -0.791095 -34.271314 12.026299 30.276736 37.592043 -9.750462 -9.264179 -5.431124 -2.786755 -8.423382 -0.327605 1.238444 0.837249 0.000000 0.000000 0.000000 -0.288355 -59.881757 -0.791095 -27.193712 -11.521131 -20.739321 38.280273 3.406191 -6.480002 -13.019803 3.931882 19.906258 -0.322816 -0.997455 -0.837141 0.000000 0.000000 0.000000 -0.288355 -59.881757 -0.791095 8.861504 0.271596 -2.261372 4.903345 0.166409 -5.204112 0.000000 0.000000 0.000000 0.000000 0.000000 0.000000 5.149355 0.118463 -5.175091 -30.032721 25.123929 9.002712 -8.346989 23.196755 -0.434822 0.000000 0.000000 0.000000 5.149355 0.118463 -5.175091 -6.172443 -9.801485 -1.495464 0.000000 0.000000 0.000000 -23.674957 4.000662 -40.617800 3.575129 -45.830334 2.944097 0.000000 0.000000 0.000000 5.149355 0.118463 -5.175091 -5.580983 9.571823 3.440357 0.000000 0.000000 0.000000 -37.423529 -22.219213 35.390017 -112.229003 78.999833 112.654784 0.000000 0.000000 0.000000 
